<svg version="1.1" xmlns="http://www.w3.org/2000/svg" viewBox="0 0 763.9106410430923 268.61151856567113" width="763.9106410430923" height="268.61151856567113">
  <!-- svg-source:excalidraw -->
  
  <defs>
    <style class="style-fonts">
      @font-face {
        font-family: "Virgil";
        src: url("https://excalidraw.com/Virgil.woff2");
      }
      @font-face {
        font-family: "Cascadia";
        src: url("https://excalidraw.com/Cascadia.woff2");
      }
      @font-face {
        font-family: "Assistant";
        src: url("https://excalidraw.com/Assistant-Regular.woff2");
      }
    </style>
    
  </defs>
  <rect x="0" y="0" width="763.9106410430923" height="268.61151856567113" fill="#ffffff"></rect><g stroke-linecap="round" transform="translate(197.8661209805059 89.4716571432312) rotate(0 274 27)"><path d="M13.5 0 C121.84 -1.44, 230.27 -1.99, 534.5 0 M13.5 0 C175.67 -1.35, 337.49 -1.98, 534.5 0 M534.5 0 C542.56 -0.7, 548.75 5.8, 548 13.5 M534.5 0 C541.56 -1.02, 547 6.68, 548 13.5 M548 13.5 C548.7 22.96, 546.25 33.09, 548 40.5 M548 13.5 C548.87 21.88, 547.96 29.75, 548 40.5 M548 40.5 C549.59 50.59, 542.93 52.21, 534.5 54 M548 40.5 C547.75 51.59, 543.69 53.08, 534.5 54 M534.5 54 C347.54 54.15, 160.83 54.28, 13.5 54 M534.5 54 C366.97 54.91, 199.83 55.07, 13.5 54 M13.5 54 C5.84 55.81, -0.94 48.65, 0 40.5 M13.5 54 C4.36 53.74, 0.88 50.43, 0 40.5 M0 40.5 C-1.12 34.28, -1.71 26.72, 0 13.5 M0 40.5 C0.38 33.89, -0.99 26.9, 0 13.5 M0 13.5 C-0.47 3.83, 5.06 -1.72, 13.5 0 M0 13.5 C-0.35 2.2, 5.25 -0.96, 13.5 0" stroke="#1e1e1e" stroke-width="2" fill="none"></path></g><g transform="translate(46.86612098050591 92.4716571432312) rotate(0 63 25)"><text x="63" y="17.52" font-family="Virgil, Segoe UI Emoji" font-size="20px" fill="#1e1e1e" text-anchor="middle" style="white-space: pre;" direction="ltr" dominant-baseline="alphabetic">visible blades</text><text x="63" y="42.519999999999996" font-family="Virgil, Segoe UI Emoji" font-size="20px" fill="#1e1e1e" text-anchor="middle" style="white-space: pre;" direction="ltr" dominant-baseline="alphabetic">indices</text></g><g stroke-linecap="round"><g transform="translate(297.8661209805059 86.4716571432312) rotate(0 0 26.5)"><path d="M-0.35 0.91 C-0.15 9.72, 1 44.84, 1.13 53.63 M1.67 0.35 C1.81 8.73, 1.08 43.28, 0.77 51.83" stroke="#1e1e1e" stroke-width="2" fill="none"></path></g></g><mask></mask><g stroke-linecap="round"><g transform="translate(416.8661209805059 140.4716571432312) rotate(0 -1.5 -25)"><path d="M0.16 0.71 C-0.58 -7.59, -2.67 -42.2, -3.33 -50.7 M-1.21 0.03 C-2.24 -8.04, -4.43 -41.34, -4.45 -49.53" stroke="#1e1e1e" stroke-width="2" fill="none"></path></g></g><mask></mask><g stroke-linecap="round"><g transform="translate(531.0105994459734 141.46714453331725) rotate(0 -1 -25.5)"><path d="M-0.45 -0.23 C-0.76 -8.61, -1.47 -42.01, -1.8 -50.41 M1.51 -1.4 C1.06 -10.12, -1.81 -43.66, -2.65 -52.22" stroke="#1e1e1e" stroke-width="2" fill="none"></path></g></g><mask></mask><g stroke-linecap="round"><g transform="translate(628.9323709294695 143.19860571458537) rotate(0 -1.5 -25)"><path d="M0.59 -0.91 C0.29 -8.99, -1.21 -41.46, -1.94 -49.47 M-0.56 1.23 C-0.91 -7.12, -2.2 -42.65, -2.33 -51.32" stroke="#1e1e1e" stroke-width="2" fill="none"></path></g></g><mask></mask><g transform="translate(230.8661209805059 103.4716571432312) rotate(0 14 12.5)"><text x="14" y="17.52" font-family="Virgil, Segoe UI Emoji" font-size="20px" fill="#1e1e1e" text-anchor="middle" style="white-space: pre;" direction="ltr" dominant-baseline="alphabetic">32</text></g><g transform="translate(342.3661209805059 100.9716571432312) rotate(0 12.5 12.5)"><text x="12.5" y="17.52" font-family="Virgil, Segoe UI Emoji" font-size="20px" fill="#1e1e1e" text-anchor="middle" style="white-space: pre;" direction="ltr" dominant-baseline="alphabetic">54</text></g><g transform="translate(442.3661209805059 101.9716571432312) rotate(0 34.5 12.5)"><text x="34.5" y="17.52" font-family="Virgil, Segoe UI Emoji" font-size="20px" fill="#1e1e1e" text-anchor="middle" style="white-space: pre;" direction="ltr" dominant-baseline="alphabetic">24000</text></g><g transform="translate(559.3661209805059 101.9716571432312) rotate(0 19.5 12.5)"><text x="19.5" y="17.52" font-family="Virgil, Segoe UI Emoji" font-size="20px" fill="#1e1e1e" text-anchor="middle" style="white-space: pre;" direction="ltr" dominant-baseline="alphabetic">786</text></g><g transform="translate(679.8661209805059 104.9716571432312) rotate(0 7 12.5)"><text x="7" y="17.52" font-family="Virgil, Segoe UI Emoji" font-size="20px" fill="#1e1e1e" text-anchor="middle" style="white-space: pre;" direction="ltr" dominant-baseline="alphabetic">0</text></g><g stroke-linecap="round"><g transform="translate(203.06314788642965 18.37924688117704) rotate(0 71.01292575393961 31.389771528915276)"><path d="M-0.74 -0.87 C19.83 -0.1, 99.25 -6.38, 122.89 4.07 C146.52 14.51, 137.9 51.9, 141.06 61.8 M1.07 1.28 C21.57 1.79, 98.43 -7.76, 122.16 2.46 C145.89 12.68, 140.15 52.8, 143.45 62.61" stroke="#1e1e1e" stroke-width="2" fill="none"></path></g><g transform="translate(203.06314788642965 18.37924688117704) rotate(0 71.01292575393961 31.389771528915276)"><path d="M132.56 40.11 C133.73 46.55, 139.57 49.93, 143.45 62.61 M132.56 40.11 C133.91 45.08, 136.35 50.47, 143.45 62.61" stroke="#1e1e1e" stroke-width="2" fill="none"></path></g><g transform="translate(203.06314788642965 18.37924688117704) rotate(0 71.01292575393961 31.389771528915276)"><path d="M149.57 38.37 C146.44 45.15, 147.99 48.96, 143.45 62.61 M149.57 38.37 C147.2 43.83, 145.91 49.6, 143.45 62.61" stroke="#1e1e1e" stroke-width="2" fill="none"></path></g></g><mask></mask><g stroke-linecap="round" transform="translate(205.91064104309237 203.20578365628938) rotate(0 273.99999999999994 27)"><path d="M13.5 0 C152.4 1.3, 292.52 1.03, 534.5 0 M13.5 0 C126.83 0.87, 240.44 0.86, 534.5 0 M534.5 0 C543.59 -1.54, 548.52 2.5, 548 13.5 M534.5 0 C541.39 2.28, 549.88 4.9, 548 13.5 M548 13.5 C546.3 21.23, 546.32 25.87, 548 40.5 M548 13.5 C547.85 19.5, 547.44 25.2, 548 40.5 M548 40.5 C547.95 49.12, 543.43 53.59, 534.5 54 M548 40.5 C549.54 48.63, 543.36 54.14, 534.5 54 M534.5 54 C393.11 56.4, 251.59 56.18, 13.5 54 M534.5 54 C342.02 52.02, 149.49 52.37, 13.5 54 M13.5 54 C4.79 53.6, 0 48.67, 0 40.5 M13.5 54 C2.94 52.42, -2.22 50.65, 0 40.5 M0 40.5 C1.01 34.73, 1.34 25.48, 0 13.5 M0 40.5 C-0.98 34.25, 0.03 26.45, 0 13.5 M0 13.5 C-1.13 5.22, 3.51 1.96, 13.5 0 M0 13.5 C0.64 3.97, 5.15 2.23, 13.5 0" stroke="#1e1e1e" stroke-width="2" fill="none"></path></g><g stroke-linecap="round"><g transform="translate(305.91064104309237 200.20578365628938) rotate(0 0 26.5)"><path d="M0.67 0.23 C0.8 9.03, 0.53 43.32, 0.26 52.01 M-0.44 -0.69 C-0.4 8.3, -0.87 44.02, -0.55 53.03" stroke="#1e1e1e" stroke-width="2" fill="none"></path></g></g><mask></mask><g stroke-linecap="round"><g transform="translate(424.91064104309226 254.20578365628938) rotate(0 -1.5 -25)"><path d="M0.26 -0.99 C-0.51 -9.47, -3.4 -42.35, -3.93 -50.62 M-1.06 1.1 C-1.52 -7.24, -1.27 -40.96, -1.7 -49.41" stroke="#1e1e1e" stroke-width="2" fill="none"></path></g></g><mask></mask><g stroke-linecap="round"><g transform="translate(539.05511950856 255.20127104637544) rotate(0 -1 -25.5)"><path d="M-0.93 -0.62 C-1.29 -9.06, -1.9 -43.11, -1.9 -51.61 M0.79 1.67 C0.26 -6.53, -2.47 -41.67, -2.8 -50.4" stroke="#1e1e1e" stroke-width="2" fill="none"></path></g></g><mask></mask><g stroke-linecap="round"><g transform="translate(636.9768909920558 256.9327322276436) rotate(0 -1.5 -25)"><path d="M0.1 -0.61 C-0.07 -8.95, -1.45 -42.27, -1.96 -50.66 M-1.31 1.68 C-1.47 -6.46, -1.97 -40.84, -2.36 -49.47" stroke="#1e1e1e" stroke-width="2" fill="none"></path></g></g><mask></mask><g transform="translate(227.4689867171196 218.23495649330295) rotate(0 27.5 12.5)"><text x="27.5" y="17.52" font-family="Virgil, Segoe UI Emoji" font-size="20px" fill="#1e1e1e" text-anchor="middle" style="white-space: pre;" direction="ltr" dominant-baseline="alphabetic">Blade</text></g><g transform="translate(347.91064104309237 214.70578365628938) rotate(0 15 12.5)"><text x="15" y="17.52" font-family="Virgil, Segoe UI Emoji" font-size="20px" fill="#1e1e1e" text-anchor="middle" style="white-space: pre;" direction="ltr" dominant-baseline="alphabetic">null</text></g><g transform="translate(446.91064104309226 215.70578365628938) rotate(0 38 12.5)"><text x="38" y="17.52" font-family="Virgil, Segoe UI Emoji" font-size="20px" fill="#1e1e1e" text-anchor="middle" style="white-space: pre;" direction="ltr" dominant-baseline="alphabetic">garbage</text></g><g transform="translate(559.4106410430923 215.70578365628938) rotate(0 27.5 12.5)"><text x="27.5" y="17.52" font-family="Virgil, Segoe UI Emoji" font-size="20px" fill="#1e1e1e" text-anchor="middle" style="white-space: pre;" direction="ltr" dominant-baseline="alphabetic">Blade</text></g><g transform="translate(677.8522953690651 215.61826514524847) rotate(0 15 12.5)"><text x="15" y="17.52" font-family="Virgil, Segoe UI Emoji" font-size="20px" fill="#1e1e1e" text-anchor="middle" style="white-space: pre;" direction="ltr" dominant-baseline="alphabetic">null</text></g><g stroke-linecap="round"><g transform="translate(352.2932092534039 145.99667867086544) rotate(0 -45.798191247105876 28.816839436381258)"><path d="M0 -0.72 C-2.31 3.45, -0.06 21.64, -13.35 25.65 C-26.64 29.66, -66.68 18.11, -79.74 23.33 C-92.8 28.54, -89.83 51.3, -91.73 56.94 M-1.46 1.52 C-3.45 5.31, 2.06 20.72, -11.16 24.03 C-24.38 27.33, -67.37 15.74, -80.77 21.35 C-94.17 26.95, -89.62 51.69, -91.56 57.67" stroke="#1e1e1e" stroke-width="2" fill="none"></path></g><g transform="translate(352.2932092534039 145.99667867086544) rotate(0 -45.798191247105876 28.816839436381258)"><path d="M-96.69 39.84 C-95.95 44.43, -91.6 51.33, -91.56 57.67 M-96.69 39.84 C-94.51 45.85, -92.26 53.2, -91.56 57.67" stroke="#1e1e1e" stroke-width="2" fill="none"></path></g><g transform="translate(352.2932092534039 145.99667867086544) rotate(0 -45.798191247105876 28.816839436381258)"><path d="M-84.03 40.72 C-87.64 45, -87.64 51.6, -91.56 57.67 M-84.03 40.72 C-86.37 46.34, -88.64 53.38, -91.56 57.67" stroke="#1e1e1e" stroke-width="2" fill="none"></path></g></g><mask></mask><g transform="translate(88.75849376235396 206.4180241429956) rotate(0 33 25.00000000000003)"><text x="33" y="17.52" font-family="Virgil, Segoe UI Emoji" font-size="20px" fill="#1e1e1e" text-anchor="middle" style="white-space: pre;" direction="ltr" dominant-baseline="alphabetic">Blades</text><text x="33" y="42.519999999999996" font-family="Virgil, Segoe UI Emoji" font-size="20px" fill="#1e1e1e" text-anchor="middle" style="white-space: pre;" direction="ltr" dominant-baseline="alphabetic">data</text></g><g transform="translate(10 10) rotate(0 85 12.5)"><text x="85" y="17.52" font-family="Virgil, Segoe UI Emoji" font-size="20px" fill="#1e1e1e" text-anchor="middle" style="white-space: pre;" direction="ltr" dominant-baseline="alphabetic">gl_InstanceIndex</text></g></svg>