<svg width="800" height="400" viewBox="0 0 800 400" xmlns="http://www.w3.org/2000/svg"><mask id="satori_om-id"><rect x="0" y="0" width="800" height="400" fill="#fff"/></mask><rect x="0" y="0" width="800" height="400" fill="#000"/><mask id="satori_om-id-0"><rect x="198" y="196" width="404" height="48" fill="#fff"/></mask><path fill="#fff" d="M212.8 211.0L205.5 233.4L199.0 233.4L209.0 204.3L216.9 204.3L226.9 233.4L220.4 233.4L213.1 211.0L212.8 211.0ZM205.1 226.8L205.1 222.0L220.7 222.0L220.7 226.8L205.1 226.8ZM236.4 233.4L230.4 233.4L230.4 204.3L236.5 204.3L236.5 215.3L236.7 215.3Q237.1 214.4 237.8 213.5Q238.6 212.6 239.8 212.0Q241.1 211.3 242.9 211.3L242.9 211.3Q245.3 211.3 247.3 212.6Q249.3 213.8 250.5 216.3Q251.7 218.8 251.7 222.6L251.7 222.6Q251.7 226.2 250.5 228.7Q249.4 231.2 247.4 232.5Q245.4 233.8 242.9 233.8L242.9 233.8Q241.1 233.8 239.9 233.2Q238.7 232.6 237.9 231.7Q237.1 230.9 236.7 229.9L236.7 229.9L236.4 229.9L236.4 233.4ZM236.4 222.5L236.4 222.5Q236.4 224.5 236.9 225.9Q237.4 227.4 238.5 228.2Q239.5 229.0 241.0 229.0L241.0 229.0Q242.4 229.0 243.5 228.2Q244.5 227.3 245.0 225.9Q245.5 224.4 245.5 222.5L245.5 222.5Q245.5 220.6 245.0 219.2Q244.5 217.8 243.5 217.0Q242.4 216.2 241.0 216.2L241.0 216.2Q239.5 216.2 238.5 216.9Q237.4 217.7 236.9 219.2Q236.4 220.6 236.4 222.5ZM263.8 233.8L263.8 233.8Q261.3 233.8 259.3 232.5Q257.3 231.2 256.1 228.7Q254.9 226.2 254.9 222.6L254.9 222.6Q254.9 218.8 256.1 216.3Q257.3 213.8 259.4 212.6Q261.4 211.3 263.8 211.3L263.8 211.3Q265.6 211.3 266.8 212.0Q268.1 212.6 268.8 213.5Q269.6 214.4 270.0 215.3L270.0 215.3L270.2 215.3L270.2 204.3L276.2 204.3L276.2 233.4L270.2 233.4L270.2 229.9L270.0 229.9Q269.5 230.9 268.8 231.7Q268 232.6 266.8 233.2Q265.5 233.8 263.8 233.8ZM265.7 229.0L265.7 229.0Q267.2 229.0 268.2 228.2Q269.2 227.4 269.7 225.9Q270.3 224.5 270.3 222.5L270.3 222.5Q270.3 220.6 269.7 219.2Q269.2 217.7 268.2 216.9Q267.2 216.2 265.7 216.2L265.7 216.2Q264.2 216.2 263.2 217.0Q262.2 217.8 261.6 219.2Q261.1 220.6 261.1 222.5L261.1 222.5Q261.1 224.4 261.6 225.9Q262.2 227.3 263.2 228.2Q264.2 229.0 265.7 229.0ZM291.1 233.9L291.1 233.9Q287.7 233.9 285.3 232.5Q282.9 231.1 281.6 228.6Q280.3 226.1 280.3 222.6L280.3 222.6Q280.3 219.3 281.6 216.7Q282.9 214.2 285.3 212.8Q287.6 211.3 290.9 211.3L290.9 211.3Q293.0 211.3 294.9 212.0Q296.8 212.7 298.1 214.1Q299.5 215.5 300.3 217.6Q301.1 219.6 301.1 222.4L301.1 222.4L301.1 224.1L282.7 224.1L282.7 220.3L295.4 220.3Q295.4 219.0 294.8 218.0Q294.3 217.0 293.3 216.4Q292.3 215.9 291.0 215.9L291.0 215.9Q289.6 215.9 288.5 216.5Q287.5 217.1 286.9 218.2Q286.3 219.2 286.3 220.5L286.3 220.5L286.3 224.1Q286.3 225.7 286.9 226.9Q287.5 228.1 288.6 228.7Q289.7 229.3 291.2 229.3L291.2 229.3Q292.2 229.3 293.0 229.1Q293.9 228.8 294.5 228.2Q295.1 227.6 295.4 226.8L295.4 226.8L301.0 227.2Q300.6 229.2 299.2 230.7Q297.9 232.2 295.9 233.0Q293.8 233.9 291.1 233.9ZM305.1 204.3L311.1 204.3L311.1 233.4L305.1 233.4L305.1 204.3ZM322.0 220.8L322.0 220.8L322.0 233.4L315.9 233.4L315.9 204.3L321.8 204.3L321.8 215.5L322.1 215.5Q322.8 213.5 324.5 212.4Q326.1 211.3 328.6 211.3L328.6 211.3Q330.9 211.3 332.6 212.3Q334.3 213.3 335.2 215.2Q336.2 217.0 336.1 219.5L336.1 219.5L336.1 233.4L330.1 233.4L330.1 220.6Q330.1 218.6 329.1 217.5Q328.0 216.4 326.2 216.4L326.2 216.4Q325.0 216.4 324.0 216.9Q323.1 217.4 322.5 218.4Q322.0 219.4 322.0 220.8ZM347.1 233.9L347.1 233.9Q345.0 233.9 343.4 233.1Q341.8 232.4 340.8 230.9Q339.9 229.5 339.9 227.3L339.9 227.3Q339.9 225.5 340.6 224.3Q341.2 223.1 342.4 222.3Q343.5 221.6 345.0 221.2Q346.5 220.8 348.1 220.6L348.1 220.6Q350.0 220.4 351.2 220.3Q352.3 220.1 352.8 219.7Q353.4 219.4 353.4 218.7L353.4 218.7L353.4 218.6Q353.4 217.2 352.5 216.5Q351.7 215.8 350.1 215.8L350.1 215.8Q348.5 215.8 347.5 216.5Q346.6 217.2 346.3 218.3L346.3 218.3L340.7 217.8Q341.1 215.8 342.3 214.4Q343.6 212.9 345.6 212.1Q347.5 211.3 350.2 211.3L350.2 211.3Q352.0 211.3 353.6 211.8Q355.3 212.2 356.6 213.1Q357.9 214.0 358.7 215.4Q359.4 216.8 359.4 218.7L359.4 218.7L359.4 233.4L353.7 233.4L353.7 230.4L353.5 230.4Q353.0 231.4 352.1 232.2Q351.2 233.0 350.0 233.4Q348.8 233.9 347.1 233.9ZM348.9 229.7L348.9 229.7Q350.2 229.7 351.2 229.1Q352.2 228.6 352.8 227.7Q353.4 226.8 353.4 225.6L353.4 225.6L353.4 223.3Q353.1 223.5 352.6 223.7Q352.1 223.8 351.5 223.9Q350.9 224.1 350.3 224.1Q349.7 224.2 349.2 224.3L349.2 224.3Q348.1 224.5 347.3 224.8Q346.6 225.1 346.1 225.7Q345.7 226.3 345.7 227.1L345.7 227.1Q345.7 228.4 346.6 229.0Q347.5 229.7 348.9 229.7ZM372.2 233.8L372.2 233.8Q369.7 233.8 367.7 232.5Q365.7 231.2 364.5 228.7Q363.3 226.2 363.3 222.6L363.3 222.6Q363.3 218.8 364.5 216.3Q365.7 213.8 367.7 212.6Q369.7 211.3 372.1 211.3L372.1 211.3Q374.0 211.3 375.2 212.0Q376.4 212.6 377.2 213.5Q378.0 214.4 378.4 215.3L378.4 215.3L378.5 215.3L378.5 204.3L384.6 204.3L384.6 233.4L378.6 233.4L378.6 229.9L378.4 229.9Q377.9 230.9 377.2 231.7Q376.4 232.6 375.2 233.2Q373.9 233.8 372.2 233.8ZM374.1 229.0L374.1 229.0Q375.5 229.0 376.6 228.2Q377.6 227.4 378.1 225.9Q378.7 224.5 378.7 222.5L378.7 222.5Q378.7 220.6 378.1 219.2Q377.6 217.7 376.6 216.9Q375.5 216.2 374.1 216.2L374.1 216.2Q372.6 216.2 371.6 217.0Q370.5 217.8 370.0 219.2Q369.5 220.6 369.5 222.5L369.5 222.5Q369.5 224.4 370.0 225.9Q370.6 227.3 371.6 228.2Q372.6 229.0 374.1 229.0ZM395.6 233.4L389.5 233.4L389.5 211.6L395.6 211.6L395.6 233.4ZM392.6 208.8L392.6 208.8Q391.2 208.8 390.3 207.9Q389.3 207.0 389.3 205.7L389.3 205.7Q389.3 204.5 390.3 203.6Q391.2 202.7 392.6 202.7L392.6 202.7Q393.9 202.7 394.9 203.6Q395.8 204.5 395.8 205.7L395.8 205.7Q395.8 207.0 394.9 207.9Q393.9 208.8 392.6 208.8ZM400.0 204.3L404.3 204.3L404.3 215.4L400.0 215.4L400.0 204.3ZM426.9 217.8L426.9 217.8L421.4 218.2Q421.2 217.5 420.8 216.9Q420.3 216.3 419.5 216.0Q418.8 215.6 417.7 215.6L417.7 215.6Q416.3 215.6 415.4 216.2Q414.4 216.8 414.4 217.8L414.4 217.8Q414.4 218.6 415.0 219.1Q415.6 219.6 417.2 220.0L417.2 220.0L421.1 220.8Q424.3 221.4 425.9 222.9Q427.4 224.3 427.4 226.7L427.4 226.7Q427.4 228.8 426.2 230.4Q424.9 232.1 422.7 233.0Q420.5 233.9 417.7 233.9L417.7 233.9Q413.4 233.9 410.8 232.1Q408.2 230.2 407.8 227.1L407.8 227.1L413.8 226.8Q414.0 228.1 415.1 228.8Q416.1 229.5 417.7 229.5L417.7 229.5Q419.3 229.5 420.3 228.9Q421.3 228.3 421.3 227.3L421.3 227.3Q421.3 226.5 420.6 225.9Q419.9 225.4 418.5 225.1L418.5 225.1L414.7 224.4Q411.5 223.7 409.9 222.1Q408.4 220.6 408.4 218.1L408.4 218.1Q408.4 216.0 409.5 214.5Q410.7 213.0 412.8 212.2Q414.8 211.3 417.6 211.3L417.6 211.3Q421.8 211.3 424.1 213.1Q426.5 214.8 426.9 217.8Z M453.2 233.4L447.2 233.4L438.9 204.3L445.6 204.3L450.4 224.6L450.6 224.6L455.9 204.3L461.7 204.3L467.0 224.6L467.2 224.6L472.1 204.3L478.8 204.3L470.5 233.4L464.5 233.4L458.9 214.4L458.7 214.4L453.2 233.4ZM489.5 233.9L489.5 233.9Q486.2 233.9 483.7 232.5Q481.3 231.1 480.0 228.6Q478.7 226.1 478.7 222.6L478.7 222.6Q478.7 219.3 480.0 216.7Q481.3 214.2 483.7 212.8Q486.1 211.3 489.3 211.3L489.3 211.3Q491.5 211.3 493.3 212.0Q495.2 212.7 496.6 214.1Q498.0 215.5 498.8 217.6Q499.5 219.6 499.5 222.4L499.5 222.4L499.5 224.1L481.1 224.1L481.1 220.3L493.9 220.3Q493.9 219.0 493.3 218.0Q492.7 217.0 491.7 216.4Q490.7 215.9 489.4 215.9L489.4 215.9Q488.0 215.9 487.0 216.5Q485.9 217.1 485.3 218.2Q484.7 219.2 484.7 220.5L484.7 220.5L484.7 224.1Q484.7 225.7 485.3 226.9Q485.9 228.1 487.0 228.7Q488.1 229.3 489.6 229.3L489.6 229.3Q490.6 229.3 491.5 229.1Q492.3 228.8 492.9 228.2Q493.5 227.6 493.8 226.8L493.8 226.8L499.4 227.2Q499.0 229.2 497.7 230.7Q496.4 232.2 494.3 233.0Q492.2 233.9 489.5 233.9ZM509.6 233.4L503.6 233.4L503.6 204.3L509.7 204.3L509.7 215.3L509.8 215.3Q510.2 214.4 511.0 213.5Q511.8 212.6 513.0 212.0Q514.2 211.3 516.1 211.3L516.1 211.3Q518.4 211.3 520.5 212.6Q522.5 213.8 523.7 216.3Q524.9 218.8 524.9 222.6L524.9 222.6Q524.9 226.2 523.7 228.7Q522.5 231.2 520.5 232.5Q518.5 233.8 516.0 233.8L516.0 233.8Q514.3 233.8 513.0 233.2Q511.8 232.6 511.0 231.7Q510.3 230.9 509.8 229.9L509.8 229.9L509.6 229.9L509.6 233.4ZM509.5 222.5L509.5 222.5Q509.5 224.5 510.1 225.9Q510.6 227.4 511.6 228.2Q512.7 229.0 514.1 229.0L514.1 229.0Q515.6 229.0 516.6 228.2Q517.6 227.3 518.2 225.9Q518.7 224.4 518.7 222.5L518.7 222.5Q518.7 220.6 518.2 219.2Q517.7 217.8 516.6 217.0Q515.6 216.2 514.1 216.2L514.1 216.2Q512.6 216.2 511.6 216.9Q510.6 217.7 510.1 219.2Q509.5 220.6 509.5 222.5ZM547.1 217.8L547.1 217.8L541.5 218.2Q541.4 217.5 540.9 216.9Q540.4 216.3 539.7 216.0Q538.9 215.6 537.9 215.6L537.9 215.6Q536.5 215.6 535.5 216.2Q534.5 216.8 534.5 217.8L534.5 217.8Q534.5 218.6 535.2 219.1Q535.8 219.6 537.3 220.0L537.3 220.0L541.3 220.8Q544.4 221.4 546.0 222.9Q547.6 224.3 547.6 226.7L547.6 226.7Q547.6 228.8 546.3 230.4Q545.0 232.1 542.9 233.0Q540.7 233.9 537.8 233.9L537.8 233.9Q533.5 233.9 530.9 232.1Q528.4 230.2 527.9 227.1L527.9 227.1L533.9 226.8Q534.2 228.1 535.2 228.8Q536.2 229.5 537.9 229.5L537.9 229.5Q539.4 229.5 540.4 228.9Q541.4 228.3 541.4 227.3L541.4 227.3Q541.4 226.5 540.7 225.9Q540.0 225.4 538.6 225.1L538.6 225.1L534.8 224.4Q531.6 223.7 530.1 222.1Q528.5 220.6 528.5 218.1L528.5 218.1Q528.5 216.0 529.7 214.5Q530.8 213.0 532.9 212.2Q535.0 211.3 537.8 211.3L537.8 211.3Q541.9 211.3 544.3 213.1Q546.7 214.8 547.1 217.8ZM557.4 233.4L551.4 233.4L551.4 211.6L557.4 211.6L557.4 233.4ZM554.4 208.8L554.4 208.8Q553.1 208.8 552.1 207.9Q551.2 207.0 551.2 205.7L551.2 205.7Q551.2 204.5 552.1 203.6Q553.1 202.7 554.4 202.7L554.4 202.7Q555.8 202.7 556.7 203.6Q557.7 204.5 557.7 205.7L557.7 205.7Q557.7 207.0 556.7 207.9Q555.8 208.8 554.4 208.8ZM560.7 211.6L573.9 211.6L573.9 216.2L560.7 216.2L560.7 211.6ZM563.7 227.5L563.7 206.4L569.8 206.4L569.8 226.7Q569.8 227.6 570.0 228.0Q570.3 228.5 570.7 228.7Q571.2 228.9 571.8 228.9L571.8 228.9Q572.2 228.9 572.7 228.8Q573.1 228.7 573.3 228.7L573.3 228.7L574.3 233.2Q573.8 233.3 573.0 233.5Q572.2 233.7 571.0 233.7L571.0 233.7Q568.8 233.8 567.2 233.2Q565.5 232.5 564.6 231.1Q563.7 229.7 563.7 227.5L563.7 227.5ZM587.5 233.9L587.5 233.9Q584.2 233.9 581.7 232.5Q579.3 231.1 578 228.6Q576.7 226.1 576.7 222.6L576.7 222.6Q576.7 219.3 578 216.7Q579.3 214.2 581.7 212.8Q584.1 211.3 587.3 211.3L587.3 211.3Q589.4 211.3 591.3 212.0Q593.2 212.7 594.6 214.1Q596.0 215.5 596.8 217.6Q597.5 219.6 597.5 222.4L597.5 222.4L597.5 224.1L579.1 224.1L579.1 220.3L591.8 220.3Q591.8 219.0 591.3 218.0Q590.7 217.0 589.7 216.4Q588.7 215.9 587.4 215.9L587.4 215.9Q586.0 215.9 584.9 216.5Q583.9 217.1 583.3 218.2Q582.7 219.2 582.7 220.5L582.7 220.5L582.7 224.1Q582.7 225.7 583.3 226.9Q583.9 228.1 585.0 228.7Q586.1 229.3 587.6 229.3L587.6 229.3Q588.6 229.3 589.5 229.1Q590.3 228.8 590.9 228.2Q591.5 227.6 591.8 226.8L591.8 226.8L597.4 227.2Q597.0 229.2 595.7 230.7Q594.3 232.2 592.3 233.0Q590.2 233.9 587.5 233.9Z "/></svg>