<svg width="800" height="400" viewBox="0 0 800 400" xmlns="http://www.w3.org/2000/svg"><mask id="satori_om-id"><rect x="0" y="0" width="800" height="400" fill="#fff"/></mask><rect x="0" y="0" width="800" height="400" fill="#000"/><clipPath id="satori_bct-id-0"><path d="M299.8 187.0L292.5 209.4L286.0 209.4L296.0 180.3L303.9 180.3L313.9 209.4L307.4 209.4L300.1 187.0L299.8 187.0ZM292.1 202.8L292.1 198.0L307.7 198.0L307.7 202.8L292.1 202.8ZM323.4 209.4L317.4 209.4L317.4 180.3L323.5 180.3L323.5 191.3L323.7 191.3Q324.1 190.4 324.8 189.5Q325.6 188.6 326.8 188.0Q328.1 187.3 329.9 187.3L329.9 187.3Q332.3 187.3 334.3 188.6Q336.3 189.8 337.5 192.3Q338.7 194.8 338.7 198.6L338.7 198.6Q338.7 202.2 337.5 204.7Q336.4 207.2 334.4 208.5Q332.4 209.8 329.9 209.8L329.9 209.8Q328.1 209.8 326.9 209.2Q325.7 208.6 324.9 207.7Q324.1 206.9 323.7 205.9L323.7 205.9L323.4 205.9L323.4 209.4ZM323.4 198.5L323.4 198.5Q323.4 200.5 323.9 201.9Q324.4 203.4 325.5 204.2Q326.5 205.0 328.0 205.0L328.0 205.0Q329.4 205.0 330.5 204.2Q331.5 203.3 332.0 201.9Q332.5 200.4 332.5 198.5L332.5 198.5Q332.5 196.6 332.0 195.2Q331.5 193.8 330.5 193.0Q329.4 192.2 328.0 192.2L328.0 192.2Q326.5 192.2 325.5 192.9Q324.4 193.7 323.9 195.2Q323.4 196.6 323.4 198.5ZM350.8 209.8L350.8 209.8Q348.3 209.8 346.3 208.5Q344.3 207.2 343.1 204.7Q341.9 202.2 341.9 198.6L341.9 198.6Q341.9 194.8 343.1 192.3Q344.3 189.8 346.4 188.6Q348.4 187.3 350.8 187.3L350.8 187.3Q352.6 187.3 353.8 188.0Q355.1 188.6 355.8 189.5Q356.6 190.4 357.0 191.3L357.0 191.3L357.2 191.3L357.2 180.3L363.2 180.3L363.2 209.4L357.2 209.4L357.2 205.9L357.0 205.9Q356.5 206.9 355.8 207.7Q355 208.6 353.8 209.2Q352.5 209.8 350.8 209.8ZM352.7 205.0L352.7 205.0Q354.2 205.0 355.2 204.2Q356.2 203.4 356.7 201.9Q357.3 200.5 357.3 198.5L357.3 198.5Q357.3 196.6 356.7 195.2Q356.2 193.7 355.2 192.9Q354.2 192.2 352.7 192.2L352.7 192.2Q351.2 192.2 350.2 193.0Q349.2 193.8 348.6 195.2Q348.1 196.6 348.1 198.5L348.1 198.5Q348.1 200.4 348.6 201.9Q349.2 203.3 350.2 204.2Q351.2 205.0 352.7 205.0ZM378.1 209.9L378.1 209.9Q374.7 209.9 372.3 208.5Q369.9 207.1 368.6 204.6Q367.3 202.1 367.3 198.6L367.3 198.6Q367.3 195.3 368.6 192.7Q369.9 190.2 372.3 188.8Q374.6 187.3 377.9 187.3L377.9 187.3Q380.0 187.3 381.9 188.0Q383.8 188.7 385.1 190.1Q386.5 191.5 387.3 193.6Q388.1 195.6 388.1 198.4L388.1 198.4L388.1 200.1L369.7 200.1L369.7 196.3L382.4 196.3Q382.4 195.0 381.8 194.0Q381.3 193.0 380.3 192.4Q379.3 191.9 378.0 191.9L378.0 191.9Q376.6 191.9 375.5 192.5Q374.5 193.1 373.9 194.2Q373.3 195.2 373.3 196.5L373.3 196.5L373.3 200.1Q373.3 201.7 373.9 202.9Q374.5 204.1 375.6 204.7Q376.7 205.3 378.2 205.3L378.2 205.3Q379.2 205.3 380.0 205.1Q380.9 204.8 381.5 204.2Q382.1 203.6 382.4 202.8L382.4 202.8L388.0 203.2Q387.6 205.2 386.2 206.7Q384.9 208.2 382.9 209.0Q380.8 209.9 378.1 209.9ZM392.1 180.3L398.1 180.3L398.1 209.4L392.1 209.4L392.1 180.3ZM409.0 196.8L409.0 196.8L409.0 209.4L402.9 209.4L402.9 180.3L408.8 180.3L408.8 191.5L409.1 191.5Q409.8 189.5 411.5 188.4Q413.1 187.3 415.6 187.3L415.6 187.3Q417.9 187.3 419.6 188.3Q421.3 189.3 422.2 191.2Q423.2 193.0 423.1 195.5L423.1 195.5L423.1 209.4L417.1 209.4L417.1 196.6Q417.1 194.6 416.1 193.5Q415.0 192.4 413.2 192.4L413.2 192.4Q412.0 192.4 411.0 192.9Q410.1 193.4 409.5 194.4Q409.0 195.4 409.0 196.8ZM434.1 209.9L434.1 209.9Q432.0 209.9 430.4 209.1Q428.8 208.4 427.8 206.9Q426.9 205.5 426.9 203.3L426.9 203.3Q426.9 201.5 427.6 200.3Q428.2 199.1 429.4 198.3Q430.5 197.6 432.0 197.2Q433.5 196.8 435.1 196.6L435.1 196.6Q437.0 196.4 438.2 196.3Q439.3 196.1 439.8 195.7Q440.4 195.4 440.4 194.7L440.4 194.7L440.4 194.6Q440.4 193.2 439.5 192.5Q438.7 191.8 437.1 191.8L437.1 191.8Q435.5 191.8 434.5 192.5Q433.6 193.2 433.3 194.3L433.3 194.3L427.7 193.8Q428.1 191.8 429.3 190.4Q430.6 188.9 432.6 188.1Q434.5 187.3 437.2 187.3L437.2 187.3Q439.0 187.3 440.6 187.8Q442.3 188.2 443.6 189.1Q444.9 190.0 445.7 191.4Q446.4 192.8 446.4 194.7L446.4 194.7L446.4 209.4L440.7 209.4L440.7 206.4L440.5 206.4Q440.0 207.4 439.1 208.2Q438.2 209.0 437.0 209.4Q435.8 209.9 434.1 209.9ZM435.9 205.7L435.9 205.7Q437.2 205.7 438.2 205.1Q439.2 204.6 439.8 203.7Q440.4 202.8 440.4 201.6L440.4 201.6L440.4 199.3Q440.1 199.5 439.6 199.7Q439.1 199.8 438.5 199.9Q437.9 200.1 437.3 200.1Q436.7 200.2 436.2 200.3L436.2 200.3Q435.1 200.5 434.3 200.8Q433.6 201.1 433.1 201.7Q432.7 202.3 432.7 203.1L432.7 203.1Q432.7 204.4 433.6 205.0Q434.5 205.7 435.9 205.7ZM459.2 209.8L459.2 209.8Q456.7 209.8 454.7 208.5Q452.7 207.2 451.5 204.7Q450.3 202.2 450.3 198.6L450.3 198.6Q450.3 194.8 451.5 192.3Q452.7 189.8 454.7 188.6Q456.7 187.3 459.1 187.3L459.1 187.3Q461.0 187.3 462.2 188.0Q463.4 188.6 464.2 189.5Q465.0 190.4 465.4 191.3L465.4 191.3L465.5 191.3L465.5 180.3L471.6 180.3L471.6 209.4L465.6 209.4L465.6 205.9L465.4 205.9Q464.9 206.9 464.2 207.7Q463.4 208.6 462.2 209.2Q460.9 209.8 459.2 209.8ZM461.1 205.0L461.1 205.0Q462.5 205.0 463.6 204.2Q464.6 203.4 465.1 201.9Q465.7 200.5 465.7 198.5L465.7 198.5Q465.7 196.6 465.1 195.2Q464.6 193.7 463.6 192.9Q462.5 192.2 461.1 192.2L461.1 192.2Q459.6 192.2 458.6 193.0Q457.5 193.8 457.0 195.2Q456.5 196.6 456.5 198.5L456.5 198.5Q456.5 200.4 457.0 201.9Q457.6 203.3 458.6 204.2Q459.6 205.0 461.1 205.0ZM482.6 209.4L476.5 209.4L476.5 187.6L482.6 187.6L482.6 209.4ZM479.6 184.8L479.6 184.8Q478.2 184.8 477.3 183.9Q476.3 183.0 476.3 181.7L476.3 181.7Q476.3 180.5 477.3 179.6Q478.2 178.7 479.6 178.7L479.6 178.7Q480.9 178.7 481.9 179.6Q482.8 180.5 482.8 181.7L482.8 181.7Q482.8 183.0 481.9 183.9Q480.9 184.8 479.6 184.8ZM487.0 180.3L491.3 180.3L491.3 191.4L487.0 191.4L487.0 180.3ZM513.9 193.8L513.9 193.8L508.4 194.2Q508.2 193.5 507.8 192.9Q507.3 192.3 506.5 192.0Q505.8 191.6 504.7 191.6L504.7 191.6Q503.3 191.6 502.4 192.2Q501.4 192.8 501.4 193.8L501.4 193.8Q501.4 194.6 502.0 195.1Q502.6 195.6 504.2 196.0L504.2 196.0L508.1 196.8Q511.3 197.4 512.9 198.9Q514.4 200.3 514.4 202.7L514.4 202.7Q514.4 204.8 513.2 206.4Q511.9 208.1 509.7 209.0Q507.5 209.9 504.7 209.9L504.7 209.9Q500.4 209.9 497.8 208.1Q495.2 206.2 494.8 203.1L494.8 203.1L500.8 202.8Q501.0 204.1 502.1 204.8Q503.1 205.5 504.7 205.5L504.7 205.5Q506.3 205.5 507.3 204.9Q508.3 204.3 508.3 203.3L508.3 203.3Q508.3 202.5 507.6 201.9Q506.9 201.4 505.5 201.1L505.5 201.1L501.7 200.4Q498.5 199.7 496.9 198.1Q495.4 196.6 495.4 194.1L495.4 194.1Q495.4 192.0 496.5 190.5Q497.7 189.0 499.8 188.2Q501.8 187.3 504.6 187.3L504.6 187.3Q508.8 187.3 511.1 189.1Q513.5 190.8 513.9 193.8Z "/></clipPath><defs><pattern id="satori_pattern_id-0_0" x="0" y="0" width="1" height="1" patternUnits="objectBoundingBox"><linearGradient id="satori_biid-0_0" x1="0" y1="0" x2="1" y2="0"><stop offset="0%" stop-color="rgb(0,124,240)"/><stop offset="100%" stop-color="rgb(0,223,216)"/></linearGradient><rect x="0" y="0" width="231" height="48" fill="url(#satori_biid-0_0)"/></pattern></defs><mask id="satori_om-id-0"><rect x="285" y="172" width="231" height="48" fill="#fff"/></mask><rect x="285" y="172" width="231" height="48" fill="url(#satori_pattern_id-0_0)" clip-path="url(#satori_bct-id-0)"/><clipPath id="satori_bct-id-1"><path d="M333.1 257.4L327.1 257.4L318.8 228.3L325.5 228.3L330.3 248.6L330.5 248.6L335.8 228.3L341.6 228.3L346.9 248.6L347.1 248.6L352.0 228.3L358.7 228.3L350.4 257.4L344.4 257.4L338.8 238.4L338.6 238.4L333.1 257.4ZM369.4 257.9L369.4 257.9Q366.1 257.9 363.6 256.5Q361.2 255.1 359.9 252.6Q358.6 250.1 358.6 246.6L358.6 246.6Q358.6 243.3 359.9 240.7Q361.2 238.2 363.6 236.8Q366.0 235.3 369.2 235.3L369.2 235.3Q371.4 235.3 373.2 236.0Q375.1 236.7 376.5 238.1Q377.9 239.5 378.7 241.6Q379.4 243.6 379.4 246.4L379.4 246.4L379.4 248.1L361.0 248.1L361.0 244.3L373.8 244.3Q373.8 243.0 373.2 242.0Q372.6 241.0 371.6 240.4Q370.6 239.9 369.3 239.9L369.3 239.9Q367.9 239.9 366.9 240.5Q365.8 241.1 365.2 242.2Q364.6 243.2 364.6 244.5L364.6 244.5L364.6 248.1Q364.6 249.7 365.2 250.9Q365.8 252.1 366.9 252.7Q368.0 253.3 369.5 253.3L369.5 253.3Q370.5 253.3 371.4 253.1Q372.2 252.8 372.8 252.2Q373.4 251.6 373.7 250.8L373.7 250.8L379.3 251.2Q378.9 253.2 377.6 254.7Q376.3 256.2 374.2 257.0Q372.1 257.9 369.4 257.9ZM389.5 257.4L383.5 257.4L383.5 228.3L389.6 228.3L389.6 239.3L389.7 239.3Q390.1 238.4 390.9 237.5Q391.7 236.6 392.9 236.0Q394.1 235.3 396.0 235.3L396.0 235.3Q398.3 235.3 400.4 236.6Q402.4 237.8 403.6 240.3Q404.8 242.8 404.8 246.6L404.8 246.6Q404.8 250.2 403.6 252.7Q402.4 255.2 400.4 256.5Q398.4 257.8 395.9 257.8L395.9 257.8Q394.2 257.8 393.0 257.2Q391.7 256.6 390.9 255.7Q390.2 254.9 389.7 253.9L389.7 253.9L389.5 253.9L389.5 257.4ZM389.4 246.5L389.4 246.5Q389.4 248.5 390.0 249.9Q390.5 251.4 391.5 252.2Q392.6 253.0 394.0 253.0L394.0 253.0Q395.5 253.0 396.5 252.2Q397.5 251.3 398.1 249.9Q398.6 248.4 398.6 246.5L398.6 246.5Q398.6 244.6 398.1 243.2Q397.6 241.8 396.5 241.0Q395.5 240.2 394.0 240.2L394.0 240.2Q392.5 240.2 391.5 240.9Q390.5 241.7 390.0 243.2Q389.4 244.6 389.4 246.5ZM427.0 241.8L427.0 241.8L421.4 242.2Q421.3 241.5 420.8 240.9Q420.3 240.3 419.6 240.0Q418.8 239.6 417.8 239.6L417.8 239.6Q416.4 239.6 415.4 240.2Q414.4 240.8 414.4 241.8L414.4 241.8Q414.4 242.6 415.1 243.1Q415.7 243.6 417.2 244.0L417.2 244.0L421.2 244.8Q424.3 245.4 425.9 246.9Q427.5 248.3 427.5 250.7L427.5 250.7Q427.5 252.8 426.2 254.4Q424.9 256.1 422.8 257.0Q420.6 257.9 417.7 257.9L417.7 257.9Q413.4 257.9 410.8 256.1Q408.3 254.2 407.8 251.1L407.8 251.1L413.8 250.8Q414.1 252.1 415.1 252.8Q416.1 253.5 417.8 253.5L417.8 253.5Q419.3 253.5 420.3 252.9Q421.3 252.3 421.3 251.3L421.3 251.3Q421.3 250.5 420.6 249.9Q419.9 249.4 418.5 249.1L418.5 249.1L414.7 248.4Q411.5 247.7 410.0 246.1Q408.4 244.6 408.4 242.1L408.4 242.1Q408.4 240.0 409.6 238.5Q410.7 237.0 412.8 236.2Q414.9 235.3 417.7 235.3L417.7 235.3Q421.8 235.3 424.2 237.1Q426.6 238.8 427.0 241.8ZM437.3 257.4L431.3 257.4L431.3 235.6L437.3 235.6L437.3 257.4ZM434.3 232.8L434.3 232.8Q433.0 232.8 432.0 231.9Q431.1 231.0 431.1 229.7L431.1 229.7Q431.1 228.5 432.0 227.6Q433.0 226.7 434.3 226.7L434.3 226.7Q435.7 226.7 436.6 227.6Q437.6 228.5 437.6 229.7L437.6 229.7Q437.6 231.0 436.6 231.9Q435.7 232.8 434.3 232.8ZM440.6 235.6L453.8 235.6L453.8 240.2L440.6 240.2L440.6 235.6ZM443.6 251.5L443.6 230.4L449.7 230.4L449.7 250.7Q449.7 251.6 449.9 252.0Q450.2 252.5 450.6 252.7Q451.1 252.9 451.7 252.9L451.7 252.9Q452.1 252.9 452.6 252.8Q453.0 252.7 453.2 252.7L453.2 252.7L454.2 257.2Q453.7 257.3 452.9 257.5Q452.1 257.7 450.9 257.7L450.9 257.7Q448.7 257.8 447.1 257.2Q445.4 256.5 444.5 255.1Q443.6 253.7 443.6 251.5L443.6 251.5ZM467.4 257.9L467.4 257.9Q464.1 257.9 461.6 256.5Q459.2 255.1 457.9 252.6Q456.6 250.1 456.6 246.6L456.6 246.6Q456.6 243.3 457.9 240.7Q459.2 238.2 461.6 236.8Q464.0 235.3 467.2 235.3L467.2 235.3Q469.3 235.3 471.2 236.0Q473.1 236.7 474.5 238.1Q475.9 239.5 476.7 241.6Q477.4 243.6 477.4 246.4L477.4 246.4L477.4 248.1L459.0 248.1L459.0 244.3L471.7 244.3Q471.7 243.0 471.2 242.0Q470.6 241.0 469.6 240.4Q468.6 239.9 467.3 239.9L467.3 239.9Q465.9 239.9 464.8 240.5Q463.8 241.1 463.2 242.2Q462.6 243.2 462.6 244.5L462.6 244.5L462.6 248.1Q462.6 249.7 463.2 250.9Q463.8 252.1 464.9 252.7Q466.0 253.3 467.5 253.3L467.5 253.3Q468.5 253.3 469.4 253.1Q470.2 252.8 470.8 252.2Q471.4 251.6 471.7 250.8L471.7 250.8L477.3 251.2Q476.9 253.2 475.6 254.7Q474.3 256.2 472.2 257.0Q470.1 257.9 467.4 257.9Z "/></clipPath><defs><pattern id="satori_pattern_id-1_0" x="0" y="0" width="1" height="1" patternUnits="objectBoundingBox"><linearGradient id="satori_biid-1_0" x1="0" y1="0" x2="1" y2="0"><stop offset="0%" stop-color="rgb(0,124,240)"/><stop offset="100%" stop-color="rgb(0,223,216)"/></linearGradient><rect x="0" y="0" width="164" height="48" fill="url(#satori_biid-1_0)"/></pattern></defs><mask id="satori_om-id-1"><rect x="318" y="220" width="164" height="48" fill="#fff"/></mask><rect x="318" y="220" width="164" height="48" fill="url(#satori_pattern_id-1_0)" clip-path="url(#satori_bct-id-1)"/></svg>